<svg width="64" height="28" viewBox="0 0 64 28" fill="none" xmlns="http://www.w3.org/2000/svg">
<g filter="url(#filter0_b_1_1532)">
<rect y="-1.52588e-05" width="64" height="28" rx="14" fill="#C7C7C7" fill-opacity="0.35"/>
</g>
<g clip-path="url(#clip0_1_1532)">
<path d="M7.06271 14.1211L11.091 7.43721V7.44039L11.0919 7.43721L15.1195 14.1202L15.1217 14.1211L11.0934 16.5023V16.5016L11.0919 16.5024L11.091 16.5015V16.5023L7.06271 14.1211Z" fill="white"/>
<path d="M11.091 20.5594V20.5622L7.06259 14.8856L11.091 17.2655V17.2667L11.0919 17.2655L15.1227 14.8856L11.0919 20.5622L11.091 20.5594Z" fill="white"/>
</g>
<path d="M24.5852 22.0795C24.1951 22.0795 23.8466 22.0123 23.5398 21.8778C23.2348 21.7434 22.9934 21.5568 22.8153 21.3182C22.6392 21.0776 22.5445 20.7992 22.5312 20.4829H23.4233C23.4347 20.6553 23.4924 20.8049 23.5966 20.9318C23.7027 21.0568 23.8409 21.1534 24.0114 21.2216C24.1818 21.2898 24.3712 21.3238 24.5795 21.3238C24.8087 21.3238 25.0114 21.2841 25.1875 21.2045C25.3655 21.125 25.5047 21.0142 25.6051 20.8721C25.7055 20.7282 25.7557 20.5625 25.7557 20.375C25.7557 20.1799 25.7055 20.0085 25.6051 19.8608C25.5066 19.7112 25.3617 19.5937 25.1705 19.5085C24.9811 19.4233 24.7519 19.3807 24.483 19.3807H23.9915V18.6648H24.483C24.6989 18.6648 24.8883 18.6259 25.0511 18.5483C25.2159 18.4706 25.3447 18.3627 25.4375 18.2244C25.5303 18.0843 25.5767 17.9204 25.5767 17.7329C25.5767 17.553 25.536 17.3968 25.4545 17.2642C25.375 17.1297 25.2614 17.0246 25.1136 16.9488C24.9678 16.8731 24.7955 16.8352 24.5966 16.8352C24.4072 16.8352 24.2301 16.8702 24.0653 16.9403C23.9025 17.0085 23.7699 17.107 23.6676 17.2358C23.5653 17.3627 23.5104 17.5151 23.5028 17.6932H22.6534C22.6629 17.3788 22.7557 17.1023 22.9318 16.8636C23.1098 16.625 23.3447 16.4384 23.6364 16.304C23.928 16.1695 24.2519 16.1023 24.608 16.1023C24.9811 16.1023 25.303 16.1752 25.5739 16.321C25.8466 16.4649 26.0568 16.6572 26.2045 16.8977C26.3542 17.1382 26.428 17.4015 26.4261 17.6875C26.428 18.0132 26.3371 18.2898 26.1534 18.517C25.9716 18.7443 25.7292 18.8968 25.4261 18.9744V19.0199C25.8125 19.0786 26.1117 19.232 26.3239 19.4801C26.5379 19.7282 26.6439 20.036 26.642 20.4034C26.6439 20.7235 26.5549 21.0104 26.375 21.2642C26.197 21.518 25.9536 21.7178 25.6449 21.8636C25.3362 22.0076 24.983 22.0795 24.5852 22.0795ZM28.1551 22.054C27.9998 22.054 27.8662 21.999 27.7545 21.8892C27.6427 21.7774 27.5869 21.643 27.5869 21.4858C27.5869 21.3305 27.6427 21.1979 27.7545 21.0881C27.8662 20.9763 27.9998 20.9204 28.1551 20.9204C28.3104 20.9204 28.4439 20.9763 28.5556 21.0881C28.6674 21.1979 28.7232 21.3305 28.7232 21.4858C28.7232 21.5899 28.6967 21.6856 28.6437 21.7727C28.5926 21.8579 28.5244 21.9261 28.4391 21.9773C28.3539 22.0284 28.2592 22.054 28.1551 22.054ZM31.3939 16.1818V22H30.5132V17.0625H30.4791L29.0871 17.9716V17.1307L30.5388 16.1818H31.3939ZM34.9282 22.0795C34.5722 22.0795 34.2521 22.0113 33.968 21.875C33.6858 21.7367 33.4604 21.5473 33.2919 21.3068C33.1233 21.0663 33.0334 20.7917 33.022 20.4829H33.8743C33.8951 20.7329 34.0059 20.9384 34.2066 21.0994C34.4074 21.2604 34.6479 21.3409 34.9282 21.3409C35.1517 21.3409 35.3496 21.2898 35.522 21.1875C35.6962 21.0833 35.8326 20.9403 35.9311 20.7585C36.0315 20.5767 36.0816 20.3693 36.0816 20.1363C36.0816 19.8996 36.0305 19.6884 35.9282 19.5028C35.826 19.3172 35.6849 19.1714 35.5049 19.0653C35.3269 18.9593 35.1224 18.9053 34.8913 18.9034C34.7152 18.9034 34.5381 18.9337 34.3601 18.9943C34.182 19.0549 34.0381 19.1345 33.9282 19.2329L33.1243 19.1136L33.451 16.1818H36.6498V16.9346H34.1811L33.9964 18.5625H34.0305C34.1441 18.4526 34.2947 18.3608 34.4822 18.2869C34.6716 18.2131 34.8743 18.1761 35.0902 18.1761C35.4443 18.1761 35.7597 18.2604 36.0362 18.429C36.3146 18.5975 36.5334 18.8276 36.6924 19.1193C36.8534 19.4091 36.933 19.7424 36.9311 20.1193C36.933 20.4962 36.8477 20.8324 36.6754 21.1278C36.5049 21.4233 36.2682 21.6562 35.9652 21.8267C35.664 21.9952 35.3184 22.0795 34.9282 22.0795ZM40.0857 22V17.6363H42.8214V18.2031H40.744V19.5327H42.6787V20.0973H40.744V21.4332H42.847V22H40.0857ZM43.5157 18.2031V17.6363H46.8928V18.2031H45.5313V22H44.8751V18.2031H43.5157ZM47.6691 22V17.6363H48.3275V19.5327H50.5029V17.6363H51.1634V22H50.5029V20.0973H48.3275V22H47.6691Z" fill="white"/>
<path d="M22.5284 9.99998V5.63635H23.0568V7.57953H25.3835V5.63635H25.9119V9.99998H25.3835V8.04828H23.0568V9.99998H22.5284ZM26.9316 9.99998V6.72726H27.4345V9.99998H26.9316ZM27.1873 6.1818C27.0893 6.1818 27.0048 6.14842 26.9338 6.08166C26.8642 6.0149 26.8294 5.93464 26.8294 5.84089C26.8294 5.74714 26.8642 5.66689 26.9338 5.60013C27.0048 5.53337 27.0893 5.49998 27.1873 5.49998C27.2853 5.49998 27.3691 5.53337 27.4387 5.60013C27.5098 5.66689 27.5453 5.74714 27.5453 5.84089C27.5453 5.93464 27.5098 6.0149 27.4387 6.08166C27.3691 6.14842 27.2853 6.1818 27.1873 6.1818ZM29.7065 11.2954C29.4636 11.2954 29.2548 11.2642 29.0801 11.2017C28.9053 11.1406 28.7598 11.0596 28.6433 10.9588C28.5282 10.8594 28.4366 10.7528 28.3684 10.6392L28.769 10.3579C28.8144 10.4176 28.872 10.4858 28.9416 10.5625C29.0112 10.6406 29.1063 10.7081 29.2271 10.7649C29.3492 10.8231 29.509 10.8523 29.7065 10.8523C29.9707 10.8523 30.1887 10.7883 30.3606 10.6605C30.5325 10.5327 30.6184 10.3324 30.6184 10.0596V9.39487H30.5758C30.5389 9.45453 30.4863 9.52839 30.4181 9.61646C30.3514 9.70311 30.2548 9.78052 30.1284 9.84871C30.0034 9.91547 29.8343 9.94885 29.6213 9.94885C29.3571 9.94885 29.1198 9.88635 28.9096 9.76135C28.7008 9.63635 28.5353 9.45453 28.4132 9.21589C28.2924 8.97726 28.2321 8.68748 28.2321 8.34658C28.2321 8.01135 28.291 7.71944 28.4089 7.47086C28.5268 7.22086 28.6909 7.02768 28.9011 6.89132C29.1113 6.75354 29.3542 6.68464 29.6298 6.68464C29.8428 6.68464 30.0119 6.72015 30.1369 6.79118C30.2633 6.86078 30.3599 6.94033 30.4267 7.02981C30.4948 7.11788 30.5474 7.19033 30.5843 7.24714H30.6355V6.72726H31.1213V10.0937C31.1213 10.375 31.0573 10.6037 30.9295 10.7798C30.8031 10.9574 30.6326 11.0873 30.4181 11.1697C30.2051 11.2535 29.9678 11.2954 29.7065 11.2954ZM29.6894 9.49714C29.8911 9.49714 30.0616 9.45098 30.2008 9.35865C30.34 9.26632 30.4458 9.13351 30.5183 8.96021C30.5907 8.78692 30.6269 8.57953 30.6269 8.33805C30.6269 8.10226 30.5914 7.89416 30.5204 7.71376C30.4494 7.53336 30.3443 7.39203 30.2051 7.28976C30.0659 7.18748 29.894 7.13635 29.6894 7.13635C29.4764 7.13635 29.2988 7.19033 29.1568 7.29828C29.0161 7.40623 28.9103 7.55112 28.8393 7.73294C28.7697 7.91476 28.7349 8.11646 28.7349 8.33805C28.7349 8.56533 28.7704 8.76632 28.8414 8.94104C28.9139 9.11433 29.0204 9.25069 29.161 9.35013C29.3031 9.44814 29.4792 9.49714 29.6894 9.49714ZM32.5746 8.03123V9.99998H32.0717V5.63635H32.5746V7.23862H32.6172C32.6939 7.06959 32.8089 6.93535 32.9623 6.83592C33.1172 6.73507 33.3231 6.68464 33.5802 6.68464C33.8032 6.68464 33.9986 6.72939 34.1662 6.81888C34.3338 6.90694 34.4638 7.0426 34.5561 7.22584C34.6498 7.40765 34.6967 7.63919 34.6967 7.92044V9.99998H34.1939V7.95453C34.1939 7.69459 34.1264 7.49359 33.9915 7.35155C33.8579 7.20808 33.6726 7.13635 33.4353 7.13635C33.2706 7.13635 33.1228 7.17115 32.9922 7.24075C32.8629 7.31035 32.7606 7.41192 32.6853 7.54544C32.6115 7.67896 32.5746 7.84089 32.5746 8.03123ZM37.0188 10.0682C36.7034 10.0682 36.4314 9.99856 36.2027 9.85936C35.9755 9.71873 35.8 9.52271 35.6765 9.27129C35.5543 9.01845 35.4932 8.72442 35.4932 8.38919C35.4932 8.05396 35.5543 7.75851 35.6765 7.50283C35.8 7.24572 35.9719 7.04544 36.1921 6.90197C36.4137 6.75709 36.6722 6.68464 36.9677 6.68464C37.1381 6.68464 37.3064 6.71305 37.4726 6.76987C37.6388 6.82669 37.7901 6.91902 37.9265 7.04686C38.0628 7.17328 38.1715 7.34089 38.2525 7.5497C38.3334 7.75851 38.3739 8.01561 38.3739 8.32101V8.53408H35.8512V8.09942H37.8625C37.8625 7.91476 37.8256 7.74998 37.7517 7.6051C37.6793 7.46021 37.5756 7.34586 37.4407 7.26206C37.3071 7.17825 37.1495 7.13635 36.9677 7.13635C36.7674 7.13635 36.5941 7.18606 36.4478 7.2855C36.3029 7.38351 36.1914 7.51135 36.1133 7.66902C36.0351 7.82669 35.9961 7.99572 35.9961 8.17612V8.46589C35.9961 8.71305 36.0387 8.92257 36.1239 9.09444C36.2106 9.2649 36.3306 9.39487 36.484 9.48436C36.6374 9.57243 36.8157 9.61646 37.0188 9.61646C37.1509 9.61646 37.2702 9.598 37.3767 9.56106C37.4847 9.52271 37.5777 9.46589 37.6559 9.39061C37.734 9.3139 37.7944 9.21873 37.837 9.1051L38.3228 9.24146C38.2716 9.40623 38.1857 9.55112 38.065 9.67612C37.9442 9.7997 37.7951 9.89629 37.6175 9.96589C37.44 10.0341 37.2404 10.0682 37.0188 10.0682ZM41.487 7.46021L41.0353 7.58805C41.0069 7.51277 40.965 7.43961 40.9096 7.36859C40.8556 7.29615 40.7817 7.23649 40.688 7.18961C40.5942 7.14274 40.4742 7.1193 40.3279 7.1193C40.1276 7.1193 39.9607 7.16547 39.8272 7.2578C39.6951 7.34871 39.629 7.46447 39.629 7.6051C39.629 7.7301 39.6745 7.82882 39.7654 7.90126C39.8563 7.97371 39.9984 8.03408 40.1915 8.08237L40.6773 8.20169C40.97 8.27271 41.188 8.38138 41.3315 8.52768C41.4749 8.67257 41.5467 8.85936 41.5467 9.08805C41.5467 9.27555 41.4927 9.44317 41.3847 9.59089C41.2782 9.73862 41.129 9.8551 40.9373 9.94032C40.7455 10.0256 40.5225 10.0682 40.2683 10.0682C39.9344 10.0682 39.6582 9.99572 39.4394 9.85084C39.2207 9.70595 39.0822 9.4943 39.0239 9.21589L39.5012 9.09658C39.5467 9.27271 39.6326 9.40481 39.759 9.49288C39.8869 9.58095 40.0538 9.62498 40.2597 9.62498C40.4941 9.62498 40.6802 9.57527 40.818 9.47584C40.9572 9.37498 41.0268 9.25425 41.0268 9.11362C41.0268 8.99998 40.987 8.90481 40.9075 8.82811C40.8279 8.74998 40.7058 8.69175 40.541 8.65339L39.9955 8.52555C39.6958 8.45453 39.4756 8.34444 39.335 8.1953C39.1958 8.04473 39.1262 7.85652 39.1262 7.63067C39.1262 7.44601 39.1781 7.28265 39.2817 7.14061C39.3869 6.99856 39.5296 6.88706 39.71 6.80609C39.8918 6.72513 40.0978 6.68464 40.3279 6.68464C40.6518 6.68464 40.906 6.75567 41.0907 6.89771C41.2768 7.03976 41.4089 7.22726 41.487 7.46021ZM43.7569 6.72726V7.15339H42.0609V6.72726H43.7569ZM42.5552 5.94317H43.058V9.06248C43.058 9.20453 43.0786 9.31106 43.1198 9.38209C43.1624 9.45169 43.2164 9.49856 43.2817 9.52271C43.3485 9.54544 43.4188 9.5568 43.4927 9.5568C43.5481 9.5568 43.5935 9.55396 43.629 9.54828C43.6646 9.54118 43.693 9.5355 43.7143 9.53123L43.8165 9.98294C43.7824 9.99572 43.7349 10.0085 43.6738 10.0213C43.6127 10.0355 43.5353 10.0426 43.4415 10.0426C43.2995 10.0426 43.1603 10.0121 43.0239 9.95098C42.889 9.8899 42.7768 9.79686 42.6873 9.67186C42.5992 9.54686 42.5552 9.38919 42.5552 9.19885V5.94317ZM46.329 9.99998V5.63635H47.8545C48.1585 5.63635 48.4092 5.6889 48.6067 5.79402C48.8041 5.89771 48.9511 6.03763 49.0477 6.21376C49.1443 6.38848 49.1926 6.58237 49.1926 6.79544C49.1926 6.98294 49.1592 7.13777 49.0924 7.25993C49.0271 7.38209 48.9405 7.47868 48.8325 7.5497C48.726 7.62072 48.6102 7.67328 48.4852 7.70737V7.74998C48.6187 7.75851 48.753 7.80538 48.8879 7.89061C49.0228 7.97584 49.1358 8.098 49.2267 8.25709C49.3176 8.41618 49.363 8.61078 49.363 8.84089C49.363 9.05964 49.3133 9.25638 49.2139 9.43109C49.1145 9.60581 48.9575 9.7443 48.743 9.84657C48.5285 9.94885 48.2494 9.99998 47.9057 9.99998H46.329ZM46.8574 9.53123H47.9057C48.2508 9.53123 48.4959 9.46447 48.6407 9.33095C48.787 9.19601 48.8602 9.03265 48.8602 8.84089C48.8602 8.69317 48.8226 8.5568 48.7473 8.4318C48.672 8.30538 48.5647 8.20453 48.4255 8.12925C48.2863 8.05254 48.1216 8.01419 47.9312 8.01419H46.8574V9.53123ZM46.8574 7.55396H47.8375C47.9966 7.55396 48.14 7.52271 48.2679 7.46021C48.3971 7.39771 48.4994 7.30964 48.5747 7.19601C48.6514 7.08237 48.6897 6.94885 48.6897 6.79544C48.6897 6.60368 48.623 6.44104 48.4895 6.30751C48.3559 6.17257 48.1443 6.1051 47.8545 6.1051H46.8574V7.55396ZM50.1931 9.99998V6.72726H50.696V9.99998H50.1931ZM50.4488 6.1818C50.3508 6.1818 50.2663 6.14842 50.1952 6.08166C50.1256 6.0149 50.0908 5.93464 50.0908 5.84089C50.0908 5.74714 50.1256 5.66689 50.1952 5.60013C50.2663 5.53337 50.3508 5.49998 50.4488 5.49998C50.5468 5.49998 50.6306 5.53337 50.7002 5.60013C50.7712 5.66689 50.8068 5.74714 50.8068 5.84089C50.8068 5.93464 50.7712 6.0149 50.7002 6.08166C50.6306 6.14842 50.5468 6.1818 50.4488 6.1818ZM52.8827 10.0682C52.61 10.0682 52.3692 9.99927 52.1604 9.86149C51.9516 9.72229 51.7883 9.52626 51.6704 9.27342C51.5525 9.01916 51.4935 8.71873 51.4935 8.37214C51.4935 8.02839 51.5525 7.7301 51.6704 7.47726C51.7883 7.22442 51.9523 7.0291 52.1626 6.89132C52.3728 6.75354 52.6157 6.68464 52.8913 6.68464C53.1043 6.68464 53.2727 6.72015 53.3962 6.79118C53.5212 6.86078 53.6164 6.94033 53.6817 7.02981C53.7485 7.11788 53.8004 7.19033 53.8373 7.24714H53.8799V5.63635H54.3827V9.99998H53.8969V9.49714H53.8373C53.8004 9.5568 53.7478 9.63209 53.6796 9.723C53.6114 9.81248 53.5141 9.89274 53.3877 9.96376C53.2613 10.0334 53.093 10.0682 52.8827 10.0682ZM52.9509 9.61646C53.1526 9.61646 53.3231 9.5639 53.4623 9.45879C53.6015 9.35226 53.7073 9.20524 53.7798 9.01774C53.8522 8.82882 53.8884 8.61078 53.8884 8.36362C53.8884 8.1193 53.8529 7.90552 53.7819 7.72229C53.7109 7.53763 53.6057 7.39416 53.4665 7.29189C53.3273 7.18819 53.1555 7.13635 52.9509 7.13635C52.7379 7.13635 52.5603 7.19104 52.4182 7.30041C52.2776 7.40836 52.1718 7.55538 52.1008 7.74146C52.0312 7.92612 51.9964 8.13351 51.9964 8.36362C51.9964 8.59658 52.0319 8.80822 52.1029 8.99856C52.1754 9.18748 52.2819 9.33805 52.4225 9.45027C52.5646 9.56106 52.7407 9.61646 52.9509 9.61646Z" fill="white"/>
<defs>
<filter id="filter0_b_1_1532" x="-7.40571" y="-7.40573" width="78.8114" height="42.8114" filterUnits="userSpaceOnUse" color-interpolation-filters="sRGB">
<feFlood flood-opacity="0" result="BackgroundImageFix"/>
<feGaussianBlur in="BackgroundImageFix" stdDeviation="3.70286"/>
<feComposite in2="SourceAlpha" operator="in" result="effect1_backgroundBlur_1_1532"/>
<feBlend mode="normal" in="SourceGraphic" in2="effect1_backgroundBlur_1_1532" result="shape"/>
</filter>
<clipPath id="clip0_1_1532">
<rect width="14" height="14" fill="white" transform="translate(4.00009 6.99971)"/>
</clipPath>
</defs>
</svg>
